# Blender v2.74 (sub 0) OBJ File: ''
# www.blender.org
mtllib sequence segment.mtl
o Cube
v 1.000000 -1.000000 -1.000000
v 1.000000 -1.000000 1.000000
v -1.000000 -1.000000 1.000000
v -1.000000 -1.000000 -1.000000
v 1.000000 1.975223 -0.999999
v 0.999999 1.975223 1.000001
v -1.000000 1.975223 1.000000
v -1.000000 1.975223 -1.000000
v 1.687848 2.713085 0.000001
v -1.000000 2.713085 -0.000000
v 1.687848 -1.000000 0.000000
v -1.000000 -1.000000 -0.000000
v -1.000000 1.975223 -0.000000
v 1.687848 1.975223 0.000001
vn 0.823900 0.000000 -0.566700
vn -0.000000 0.804700 0.593700
vn -0.000000 -0.000000 1.000000
vn 0.000000 0.000000 -1.000000
vn 0.000000 0.804700 -0.593700
vn 0.823900 0.000000 0.566700
vn 0.000000 -1.000000 0.000000
vn -1.000000 -0.000000 -0.000000
usemtl Material
s off
f 11//1 1//1 5//1 14//1
f 9//2 10//2 7//2 6//2
f 2//3 6//3 7//3 3//3
f 9//1 14//1 5//1
f 5//4 1//4 4//4 8//4
f 5//5 8//5 10//5 9//5
f 6//6 2//6 11//6 14//6
f 1//7 11//7 12//7 4//7
f 3//7 12//7 11//7 2//7
f 12//8 3//8 7//8 13//8
f 8//8 4//8 12//8 13//8
f 10//8 13//8 7//8
f 6//6 14//6 9//6
f 8//8 13//8 10//8
